# xmcd
# 
# Track frame offsets:
#     150
#     21976
#     40419
#     55006
#     72079
#     93885
#     110347
#     123845
#     140579
#     157635
#     173848
#     189837
#     204340
#     225396
#     245288
#     263828
#     272734
#     289324
#     306408
# 
# Disc length: 4301
# 
# Revision: 1
# Processed by: cddbd v1.5.2PL0 Copyright (c) Steve Scherf et al.
# Submitted via: BonkEnc v1.0
# 
DISCID=fd10cb13
DTITLE=CARLOS HANDALL E DANIMAR - AO VIVO
DYEAR=0
DGENRE=
TTITLE0=DOIS CORAÇÕES E UMA HISTÓRIA
TTITLE1=JUDIOU
TTITLE2=TA NO MEU CORAÇÃO
TTITLE3=HIPNOTIZANTE
TTITLE4=HÁBITO-VOCÊ NÃO SABE-MUDA DE VIDA
TTITLE5=MISTUROU
TTITLE6=FAZ TEMPO
TTITLE7=SOM E IMAGEM
TTITLE8=O AMOR QUE EU SONHEI
TTITLE9=PRAZER POR PRAZER
TTITLE10=UM COLADO NO OUTRO
TTITLE11=HOJE EU VIM PRA PEGAR
TTITLE12=DO OUTRO LADO DA CIDADE-ESQUECI-CORAÇÃO DE FORA
TTITLE13=MEUS PEDAÇOS-QUAER TE ESQUECI-POR ESSE AMOR
TTITLE14=VEZ EM QUANDO VEM ME VER-SAI DESSA CORAÇÃO
TTITLE15=GOIABADA E QUEIJO
TTITLE16=ESSA MOLECA
TTITLE17=VIDA DURA
TTITLE18=VOU TER QUE REBOLAR
EXTD=
EXTT0=
EXTT1=
EXTT2=
EXTT3=
EXTT4=
EXTT5=
EXTT6=
EXTT7=
EXTT8=
EXTT9=
EXTT10=
EXTT11=
EXTT12=
EXTT13=
EXTT14=
EXTT15=
EXTT16=
EXTT17=
EXTT18=
PLAYORDER=
